[B]Main Krishna Hoon (2013)[/B]
 
http://www.shotpix.com/images/22087520078568589780.jpg


[B]INFO[/B]

[code]Rip Information

Format                                   : AVI
Format/Info                              : Audio Video Interleave
File size                                : 702 MiB
Duration                                 : 2h 2mn
Overall bit rate                         : 799 Kbps



Video

Codec ID                                 : XVID
Codec ID/Hint                            : XviD
Duration                                 : 2h 2mn
Bit rate                                 : 662 Kbps
Width                                    : 688 pixels
Height                                   : 304 pixels
Display aspect ratio                     : 2.25:1
Frame rate                               : 29.970 fps
Color space                              : YUV
Chroma subsampling                       : 4:2:0
Bit depth                                : 8 bits
Scan type                                : Progressive
Compression mode                         : Lossy
Bits/(Pixel*Frame)                       : 0.106
Stream size                              : 582 MiB (83%)
Writing library                          : XviD 1.2.1 (UTC 2008-12-04)



Audio

Format                                   : AC-3
Format/Info                              : Audio Coding 3
Mode extension                           : CM (complete main)
Format settings, Endianness              : Big
Codec ID                                 : 2000
Duration                                 : 2h 2mn
Bit rate mode                            : Constant
Bit rate                                 : 128 Kbps
Channel(s)                               : 6 channels
Channel positions                        : Front: L C R, Side: L R, LFE
Sampling rate                            : 48.0 KHz
Bit depth                                : 16 bits
Compression mode                         : Lossy
Stream size                              : 113 MiB (16%)
Alignment                                : Aligned on interleaves
Interleave, duration                     : 64 ms (1.92 video frames)
Interleave, preload duration             : 192 ms
Title                                    : K@rtik[/code]



[B]SCREEN SHOTS[/B]
 
http://www.shotpix.com/images/56623534177349450415.png
 
http://www.shotpix.com/images/79750634625676548525.png
 
http://www.shotpix.com/images/23896439140284576577.png
 
http://www.shotpix.com/images/98547604073406058340.png
 
http://www.shotpix.com/images/24486057117513507328.png
 
http://www.shotpix.com/images/35511348698429665225.png
 
http://www.shotpix.com/images/83270783280585957481.png
 
http://www.shotpix.com/images/00971313729840239414.png
 
http://www.shotpix.com/images/06729296546123318159.png
 
http://www.shotpix.com/images/77421840797750638539.png